<?xml version="1.0" standalone="no"?>
<!DOCTYPE svg PUBLIC "-//W3C//DTD SVG 20010904//EN"
 "http://www.w3.org/TR/2001/REC-SVG-20010904/DTD/svg10.dtd">
<svg version="1.0" xmlns="http://www.w3.org/2000/svg"
 width="1536.000000pt" height="1536.000000pt" viewBox="0 0 1536.000000 1536.000000"
 preserveAspectRatio="xMidYMid meet">

<g transform="translate(0.000000,1536.000000) scale(0.100000,-0.100000)"
fill="#000000" stroke="none">
<path d="M9615 12109 c-233 -36 -443 -171 -569 -366 -94 -146 -129 -270 -129
-453 1 -106 5 -139 27 -215 62 -207 187 -372 362 -478 30 -18 54 -36 54 -40 0
-13 -900 -2481 -909 -2490 -7 -7 -2710 -182 -2715 -175 -2 2 -284 777 -628
1723 -667 1832 -641 1767 -700 1751 -12 -3 -29 -9 -35 -14 -22 -14 -1427
-3662 -1427 -3706 -1 -30 5 -43 24 -57 24 -18 55 -17 1345 65 726 46 1321 83
1322 82 5 -5 1066 -2921 1070 -2941 3 -16 -4 -25 -34 -39 -147 -70 -295 -232
-367 -404 -45 -106 -59 -185 -59 -322 1 -106 5 -139 27 -215 91 -305 322 -519
627 -581 112 -23 295 -15 394 16 249 79 435 250 529 484 39 98 56 187 56 304
0 204 -67 383 -204 545 -46 55 -174 156 -225 176 -25 11 -32 19 -29 35 4 19
1128 3116 1134 3125 3 3 2617 170 2671 171 19 0 104 -163 653 -1257 348 -692
641 -1267 651 -1277 39 -42 119 -10 119 47 0 11 -279 576 -621 1254 -341 679
-618 1237 -615 1240 3 3 315 25 693 49 378 24 698 48 711 54 45 20 48 86 7
120 -15 13 -106 9 -714 -28 -383 -24 -714 -46 -736 -48 l-41 -6 -318 634
c-175 348 -442 877 -593 1175 l-274 542 58 39 c75 51 181 164 226 239 80 138
117 271 117 431 1 443 -337 794 -784 816 -50 3 -118 1 -151 -5z m275 -155
c138 -32 278 -122 371 -238 239 -296 178 -741 -132 -965 l-43 -32 -158 316
c-120 238 -164 318 -182 327 -27 12 -68 5 -88 -16 -8 -7 -65 -155 -128 -329
l-115 -316 -40 22 c-56 31 -183 161 -223 229 -57 96 -84 190 -90 309 -10 207
50 363 197 509 97 97 184 148 303 180 90 23 238 26 328 4z m-45 -1073 c60
-121 107 -222 105 -225 -11 -10 -163 -36 -212 -36 -62 0 -168 16 -179 27 -4 5
26 100 67 213 87 242 92 253 102 246 4 -2 56 -104 117 -225z m-4840 -1404
c318 -873 576 -1590 572 -1593 -5 -5 -2448 -163 -2455 -159 -1 1 289 756 645
1679 355 922 650 1673 654 1669 4 -5 267 -722 584 -1596z m5595 -100 c315
-626 571 -1140 568 -1142 -2 -2 -546 -38 -1208 -79 -663 -42 -1235 -78 -1272
-82 -53 -5 -68 -3 -68 7 0 15 870 2411 879 2421 3 3 38 -1 76 -9 95 -20 297
-13 380 14 33 11 63 17 66 14 4 -3 264 -518 579 -1144z m-2220 -1519 c-10 -29
-262 -721 -559 -1537 -297 -816 -542 -1486 -544 -1488 -3 -2 -26 2 -53 8 -62
15 -264 16 -324 1 -25 -6 -48 -8 -51 -4 -8 9 -1060 2904 -1057 2908 4 3 2485
161 2555 163 l53 1 -20 -52z m-1164 -3161 c8 -4 -14 -77 -69 -228 -50 -138
-83 -215 -88 -207 -9 17 -147 397 -151 417 -2 9 9 18 27 22 36 9 265 6 281 -4z
m-337 -369 c117 -324 135 -358 186 -358 51 0 68 34 185 358 62 171 116 312
120 312 16 0 148 -101 187 -143 191 -208 235 -500 113 -752 -69 -141 -172
-245 -315 -315 -258 -127 -562 -75 -765 130 -132 133 -189 261 -198 441 -9
193 48 351 176 490 56 61 169 149 191 149 4 0 58 -141 120 -312z"/>
</g>
</svg>
